<svg xmlns="http://www.w3.org/2000/svg" width="424" height="352">
    <style>
        line, path, circle,rect,polygon{stroke:black;stroke-width:2;stroke-opacity:1;fill-opacity:1;stroke-linecap:round;stroke-linejoin:miter;}text{font-family:monospace;font-size:14px;}rect.backdrop{stroke:none;fill:white;}.broken{stroke-dasharray:8;}.filled{fill:black;}.bg_filled{fill:white;}.nofill{fill:white;}.end_marked_arrow{marker-end:url(#arrow);}.start_marked_arrow{marker-start:url(#arrow);}.end_marked_diamond{marker-end:url(#diamond);}.start_marked_diamond{marker-start:url(#diamond);}.end_marked_circle{marker-end:url(#circle);}.start_marked_circle{marker-start:url(#circle);}.end_marked_open_circle{marker-end:url(#open_circle);}.start_marked_open_circle{marker-start:url(#open_circle);}.end_marked_big_open_circle{marker-end:url(#big_open_circle);}.start_marked_big_open_circle{marker-start:url(#big_open_circle);}
        .r1{ 
   fill: salmon;
 }
    </style>
    <defs>
        <marker id="arrow" viewBox="-2 -2 8 8" refX="4" refY="2" markerWidth="7" markerHeight="7" orient="auto-start-reverse">
            <polygon points="0,0 0,4 4,2 0,0"></polygon>
        </marker>
        <marker id="diamond" viewBox="-2 -2 8 8" refX="4" refY="2" markerWidth="7" markerHeight="7" orient="auto-start-reverse">
            <polygon points="0,2 2,0 4,2 2,4 0,2"></polygon>
        </marker>
        <marker id="circle" viewBox="0 0 8 8" refX="4" refY="4" markerWidth="7" markerHeight="7" orient="auto-start-reverse">
            <circle cx="4" cy="4" r="2" class="filled"></circle>
        </marker>
        <marker id="open_circle" viewBox="0 0 8 8" refX="4" refY="4" markerWidth="7" markerHeight="7" orient="auto-start-reverse">
            <circle cx="4" cy="4" r="2" class="bg_filled"></circle>
        </marker>
        <marker id="big_open_circle" viewBox="0 0 8 8" refX="4" refY="4" markerWidth="7" markerHeight="7" orient="auto-start-reverse">
            <circle cx="4" cy="4" r="3" class="bg_filled"></circle>
        </marker>
    </defs>
    <rect class="backdrop" x="0" y="0" width="424" height="352"></rect>
    <rect x="4" y="120" width="80" height="32" class="solid nofill" rx="4"></rect>
    <text x="26" y="140" >Hello</text>
    <rect x="300" y="120" width="104" height="32" class="solid nofill r1" rx="4"></rect>
    <text x="322" y="140" >World</text>
    <circle cx="68" cy="24" r="3" class="nofill"></circle>
    <line x1="72" y1="24" x2="104" y2="24" class="solid"></line>
    <circle cx="36" cy="56" r="3" class="filled"></circle>
    <circle cx="100" cy="136" r="3" class="filled"></circle>
    <rect x="216" y="132" width="8" height="8" class="solid filled" rx="0"></rect>
    <text x="50" y="188" >O</text>
    <text x="98" y="188" >O</text>
    <rect x="72" y="212" width="8" height="8" class="solid filled" rx="0"></rect>
    <rect x="24" y="244" width="8" height="8" class="solid filled" rx="0"></rect>
    <text x="58" y="284" >x</text>
    <g>
        <path d="M 64,8 A 8,8 0,0,0 58,12" class="nofill"></path>
        <line x1="58" y1="12" x2="38" y2="52" class="solid"></line>
        <line x1="64" y1="8" x2="88" y2="8" class="solid"></line>
        <path d="M 88,8 A 3,3 0,0,1 90,12" class="nofill"></path>
        <line x1="90" y1="12" x2="64" y2="64" class="solid"></line>
        <line x1="52" y1="24" x2="64" y2="24" class="solid"></line>
        <line x1="76" y1="40" x2="88" y2="40" class="solid"></line>
        <polygon points="88,36 96,40 88,44" class="filled"></polygon>
        <line x1="66" y1="28" x2="56" y2="48" class="solid"></line>
        <line x1="56" y1="48" x2="72" y2="80" class="solid"></line>
        <path d="M 32,40 A 8,8 0,0,0 26,44" class="nofill"></path>
        <line x1="26" y1="44" x2="24" y2="48" class="solid"></line>
        <line x1="32" y1="40" x2="44" y2="40" class="solid"></line>
        <path d="M 24,48 A 16,16 0,0,0 24,64" class="nofill"></path>
        <line x1="24" y1="64" x2="26" y2="68" class="solid"></line>
        <path d="M 26,68 A 8,8 0,0,0 32,72" class="nofill"></path>
        <line x1="32" y1="72" x2="40" y2="72" class="solid"></line>
        <path d="M 40,72 A 8,8 0,0,1 46,76" class="nofill"></path>
        <line x1="46" y1="76" x2="60" y2="104" class="solid"></line>
        <line x1="72" y1="80" x2="60" y2="104" class="solid"></line>
    </g>
    <g>
        <path d="M 280,8 A 3,3 0,0,0 278,12" class="nofill"></path>
        <line x1="278" y1="12" x2="290" y2="36" class="solid"></line>
        <line x1="280" y1="8" x2="336" y2="8" class="solid"></line>
        <path d="M 336,8 A 8,8 0,0,1 342,12" class="nofill"></path>
        <line x1="342" y1="12" x2="362" y2="52" class="solid"></line>
        <path d="M 362,52 A 8,8 0,0,0 368,56" class="nofill"></path>
        <line x1="368" y1="56" x2="392" y2="56" class="solid"></line>
        <polygon points="414.8,28 414.8,20 409.2,20 409.2,28" class="filled"></polygon>
        <line x1="410" y1="28" x2="398" y2="52" class="solid"></line>
        <path d="M 398,52 A 8,8 0,0,1 392,56" class="nofill"></path>
        <path d="M 256,40 A 3,3 0,0,0 254,44" class="nofill"></path>
        <line x1="254" y1="44" x2="282" y2="100" class="solid"></line>
        <line x1="256" y1="40" x2="288" y2="40" class="solid"></line>
        <path d="M 290,36 A 3,3 0,0,1 288,40" class="nofill"></path>
        <polygon points="279,100 286,108 286,97" class="filled"></polygon>
    </g>
    <g>
        <line x1="104" y1="136" x2="136" y2="136" class="solid"></line>
        <polygon points="136,132 144,136 136,140" class="filled"></polygon>
    </g>
    <g>
        <line x1="156" y1="128" x2="156" y2="144" class="solid"></line>
        <line x1="156" y1="136" x2="200" y2="136" class="solid"></line>
        <polygon points="200,132 208,136 200,140" class="filled"></polygon>
    </g>
    <g>
        <line x1="224" y1="136" x2="272" y2="136" class="solid"></line>
        <polygon points="272,132 280,136 272,140" class="filled"></polygon>
    </g>
    <g>
        <line x1="28" y1="200" x2="100" y2="200" class="solid"></line>
        <line x1="28" y1="200" x2="28" y2="244" class="solid"></line>
        <line x1="52" y1="200" x2="52" y2="328" class="solid"></line>
        <line x1="76" y1="200" x2="76" y2="212" class="solid"></line>
        <line x1="100" y1="200" x2="100" y2="328" class="solid"></line>
        <line x1="28" y1="232" x2="100" y2="232" class="solid"></line>
        <line x1="28" y1="252" x2="28" y2="328" class="solid"></line>
        <line x1="28" y1="264" x2="100" y2="264" class="solid"></line>
        <line x1="28" y1="296" x2="100" y2="296" class="solid"></line>
        <line x1="28" y1="328" x2="100" y2="328" class="solid"></line>
        <line x1="76" y1="220" x2="76" y2="328" class="solid"></line>
    </g>
</svg>
