<?xml version="1.0" encoding="UTF-8" standalone="no"?>
<!DOCTYPE svg PUBLIC "-//W3C//DTD SVG 1.1//EN"
 "http://www.w3.org/Graphics/SVG/1.1/DTD/svg11.dtd">
<!-- Generated by graphviz version 2.44.0 (0)
 -->
<!-- Title: G Pages: 1 -->
<svg width="348pt" height="260pt"
 viewBox="0.00 0.00 348.39 260.00" xmlns="http://www.w3.org/2000/svg" xmlns:xlink="http://www.w3.org/1999/xlink">
<g id="graph0" class="graph" transform="scale(1 1) rotate(0) translate(4 256)">
<title>G</title>
<polygon fill="white" stroke="transparent" points="-4,4 -4,-256 344.39,-256 344.39,4 -4,4"/>
<!-- main -->
<g id="node1" class="node">
<title>main</title>
<polygon fill="#32ffff" stroke="black" points="206.64,-252 152.64,-252 152.64,-216 206.64,-216 206.64,-252"/>
<text text-anchor="middle" x="179.64" y="-230.3" font-family="Times-Roman" font-size="14.00">main</text>
</g>
<!-- parse -->
<g id="node2" class="node">
<title>parse</title>
<ellipse fill="none" stroke="black" cx="129.64" cy="-162" rx="36.29" ry="18"/>
<text text-anchor="middle" x="129.64" y="-158.3" font-family="Times-Roman" font-size="14.00">parse</text>
</g>
<!-- main&#45;&gt;parse -->
<g id="edge1" class="edge">
<title>main&#45;&gt;parse</title>
<path fill="none" stroke="black" d="M167.28,-215.7C161.17,-207.14 153.7,-196.67 147.02,-187.33"/>
<polygon fill="black" stroke="black" points="149.84,-185.25 141.18,-179.14 144.14,-189.32 149.84,-185.25"/>
</g>
<!-- init -->
<g id="node4" class="node">
<title>init</title>
<ellipse fill="none" stroke="black" cx="65.64" cy="-90" rx="27" ry="18"/>
<text text-anchor="middle" x="65.64" y="-86.3" font-family="Times-Roman" font-size="14.00">init</text>
</g>
<!-- main&#45;&gt;init -->
<g id="edge3" class="edge">
<title>main&#45;&gt;init</title>
<path fill="none" stroke="black" stroke-dasharray="1,5" d="M152.49,-224.83C130.8,-216.88 101.36,-202.64 84.64,-180 71.48,-162.17 67.04,-137.17 65.71,-118.2"/>
<polygon fill="black" stroke="black" points="69.2,-117.93 65.25,-108.1 62.21,-118.24 69.2,-117.93"/>
</g>
<!-- cleanup -->
<g id="node5" class="node">
<title>cleanup</title>
<ellipse fill="none" stroke="black" cx="230.64" cy="-162" rx="46.29" ry="18"/>
<text text-anchor="middle" x="230.64" y="-158.3" font-family="Times-Roman" font-size="14.00">cleanup</text>
</g>
<!-- main&#45;&gt;cleanup -->
<g id="edge4" class="edge">
<title>main&#45;&gt;cleanup</title>
<path fill="none" stroke="black" d="M192.25,-215.7C198.39,-207.27 205.89,-196.97 212.62,-187.73"/>
<polygon fill="black" stroke="black" points="215.47,-189.77 218.53,-179.62 209.82,-185.64 215.47,-189.77"/>
</g>
<!-- printf -->
<g id="node7" class="node">
<title>printf</title>
<ellipse fill="none" stroke="black" cx="304.64" cy="-18" rx="36" ry="18"/>
<text text-anchor="middle" x="304.64" y="-14.3" font-family="Times-Roman" font-size="14.00">printf</text>
</g>
<!-- main&#45;&gt;printf -->
<g id="edge8" class="edge">
<title>main&#45;&gt;printf</title>
<path fill="none" stroke="red" d="M207.09,-227.08C231.87,-220.2 267.2,-206.27 285.64,-180 316.62,-135.89 311.89,-67.68 307.53,-36.11"/>
</g>
<!-- execute -->
<g id="node3" class="node">
<title>execute</title>
<ellipse fill="none" stroke="black" cx="178.64" cy="-90" rx="46.29" ry="18"/>
<text text-anchor="middle" x="178.64" y="-86.3" font-family="Times-Roman" font-size="14.00">execute</text>
</g>
<!-- parse&#45;&gt;execute -->
<g id="edge2" class="edge">
<title>parse&#45;&gt;execute</title>
<path fill="none" stroke="black" d="M141.01,-144.76C146.98,-136.23 154.44,-125.58 161.13,-116.02"/>
<polygon fill="black" stroke="black" points="164.13,-117.83 167,-107.63 158.4,-113.82 164.13,-117.83"/>
</g>
<!-- make_string -->
<g id="node6" class="node">
<title>make_string</title>
<ellipse fill="none" stroke="black" cx="65.64" cy="-18" rx="65.79" ry="18"/>
<text text-anchor="middle" x="65.64" y="-14.3" font-family="Times-Roman" font-size="14.00">make_string</text>
</g>
<!-- execute&#45;&gt;make_string -->
<g id="edge5" class="edge">
<title>execute&#45;&gt;make_string</title>
<path fill="none" stroke="black" d="M154.96,-74.33C138.97,-64.43 117.63,-51.2 99.82,-40.17"/>
<polygon fill="black" stroke="black" points="101.21,-36.92 90.87,-34.63 97.53,-42.87 101.21,-36.92"/>
</g>
<!-- execute&#45;&gt;printf -->
<g id="edge6" class="edge">
<title>execute&#45;&gt;printf</title>
<path fill="none" stroke="black" d="M204.14,-74.83C223.81,-63.91 251.15,-48.72 272.35,-36.94"/>
<polygon fill="black" stroke="black" points="274.27,-39.88 281.31,-31.96 270.87,-33.76 274.27,-39.88"/>
</g>
<!-- compare -->
<g id="node8" class="node">
<title>compare</title>
<ellipse fill="none" stroke="black" cx="199.64" cy="-18" rx="50.09" ry="18"/>
<text text-anchor="middle" x="199.64" y="-14.3" font-family="Times-Roman" font-size="14.00">compare</text>
</g>
<!-- execute&#45;&gt;compare -->
<g id="edge9" class="edge">
<title>execute&#45;&gt;compare</title>
<path fill="none" stroke="red" d="M183.73,-72.05C186.98,-61.21 191.19,-47.18 194.46,-36.28"/>
</g>
<!-- init&#45;&gt;make_string -->
<g id="edge7" class="edge">
<title>init&#45;&gt;make_string</title>
<path fill="none" stroke="red" d="M65.64,-71.7C65.64,-60.85 65.64,-46.92 65.64,-36.1"/>
</g>
</g>
</svg>
